<svg viewBox="0 0 2481 2481" xmlns="http://www.w3.org/2000/svg" fill="#000" fill-rule="evenodd" clip-rule="evenodd" stroke-linejoin="round" stroke-miterlimit="1.414">
  <path d="M1442.958 113.222c-32.353-34.235-213.678-35.853-287.648-30.16 22.008 5.239 35.732 23.795 35.732 49.17V872.18l113.576-.611c-25.245-.288-59.071-13.833-59.455-45.97-1.199-9.589-4.77-693.773 2.421-693.773 44.46 0 125.682 1.774 145.676 18.508 58.112 48.666-102.092 323.992-136.086 337.309v43.536c45.178-12.095 92.214-12.382 119.317-10.14 49.182 4.063 51.735 95.534 16.661 184.884-10.656 27.174-39.149 79.533-28.588 117.543 14.731 53.03 56.601 48.714 98.82 48.714v-95.894c-1.02 27.498-9.89 71.441-51.532 47.18-21.625-12.598 12.538-86.509 23.254-110.35 33.48-74.487 51.807-233.109-11.411-244.976-24.298-4.567-46.413-2.205-91.316 5.335 47.42-48.979 182.631-284.004 110.579-360.252z" fill-rule="nonzero"/>
  <path d="M1449.475 100.745c23.578 4.698 41.474 25.568 41.474 62.535v708.889h116.584c-22.248.575-60.042-20.042-61.804-48.307l-2.038-648.32s33.36 10.033 61.109 19.035c71.453 23.183 73.048 180.786 74.222 219.947 3.357 111.669 4.124 196.44-17.644 337.285-4.483 29.056-16.134 88.57-48.559 87.3-17.992-.707-25.891-3.86-38.957-15.247 6.593 21.588 19.982 29.703 45.418 33.515 65.58 9.817 77.387-61.72 85.43-94.3 24.238-98.137 30.279-265.616 22.595-377.705-2.6-37.843 8.055-196.752-108.025-239.521-52.598-19.37-123.177-39.616-169.805-45.106zM772.15 400.761v41.655s46.63-20.51 71.13-25.508c54.505-11.124 69.165 6.88 75.23 57.62 2.877 24.07 9.326 165.754 3.033 215.943-7.228 57.609-21.673 124.531-60.414 140.426-35.6 14.6-69.044 16.134-80.84-7.732 2.818 28.421 33.756 38.838 72.365 34.366 62.608-7.252 87.864-42.193 103.662-118.07 14.528-69.74 16.17-215.643 14.061-264.933-2.194-51.255-11.543-78.705-42.29-100.917-14.707-10.62-20.64-11.747-64.56 0 42.3-29.367 68.18-65.94 80.55-94.803 19.036-44.412 12.995-113.072-15.318-131.148-44.316-28.301-165.179 30.902-263.135 85.358 22.475-5.466 35.157-2.949 35.157 13.33v625.28l113.875-.24c-26.227 1.403-63.506-19.97-62.331-49.853v-20.378c0-165.418-1.87-554.81-1.87-554.81s110.075-51.975 133.833-51.735c39.364.408 16.098 73.168 0 99.107-20.63 33.228-70.938 77.627-112.137 107.042zM2104.385 633.351c28.301-27.09 52.982-65.867 34.462-118.058-18.88-53.186-189.895-191.79-189.895-191.79v548.674h112.269c-30.267 0-57.37-29.092-57.094-52.934V438.122s79.749 74.45 83.956 93.893c7.791 36.056 12.526 97.357-68.649 114.642v38.933c59.371-11.28 146.575-24.154 168.092-12.73 66.67 35.397-14.205 172.01 76.296 194.977 29.224 7.42 53.042 3.968 73.923-.335.107-4.315-30.974-81.906-43.824-111.406 7.384 28.505 2.23 94.936-23.387 72.425-23.074-20.282 31.921-131.34-55.367-195.17-28.385-20.773-76.715-11.303-110.782 0z" fill-rule="nonzero"/>
  <path d="M1091.003 88.906c40.605 0 73.57 32.96 73.57 73.56 0 40.598-32.965 73.559-73.57 73.559-40.592 0-73.558-32.961-73.558-73.56 0-40.6 32.966-73.56 73.558-73.56zm0 36.779c20.308 0 36.785 16.48 36.785 36.78 0 20.299-16.477 36.78-36.785 36.78-20.296 0-36.773-16.481-36.773-36.78 0-20.3 16.477-36.78 36.773-36.78zM1643.744 872.169c105.449-.26 125.777-22.582 143.183-162.656 8.213-66.064 16.088-219.682 18.887-282.201 1.696-37.958 2.002-151.992 61.73-94.636v408.579h-71.781c-1.614 12.523-3.269 29.072-7.958 45.896h79.738v36.775c0 27.724-29.174 48.25-61.729 48.25l116.563-.007V304.203s-56.04-62.427-114.49-28.793c-23.248 13.376-38.785 48.496-43.402 83.817-7.202 55.128-7.999 290.168-20.114 369.589-14.025 91.879-24.321 134.49-100.627 143.353zM885.935 872.169c105.45-.26 125.777-22.582 143.183-162.656 8.213-66.064 16.089-219.682 18.887-282.201 1.696-37.958 2.003-151.992 61.73-94.636v408.579h-71.781c-1.614 12.523-3.269 29.072-7.957 45.896h79.737v36.775c0 31.417-29.174 48.25-61.729 48.25l116.563-.009V304.203s-56.04-62.427-114.489-28.793c-23.25 13.376-38.786 48.496-43.403 83.817-7.202 55.128-7.998 290.168-20.113 369.589-14.025 91.879-24.322 134.49-100.628 143.353z"/>
  <path d="M1973.232 2138.127c-25.388 18.484-52.006 8.379-52.144-20.845l-1.757-367.612s106.66-4.867 128.458 2.266c43.158 14.096-53.173 105.328-111.641 111.285v42.158s90.043-.78 126.45 0c71.432 1.546 26.015 53.102-27.258 106.815-57.452 57.932-91.863 95.499-93.859 25.747-18.159 80.096 9.4 121.846 101.765 35.673 60.916-56.83 86.693-89.062 116.524-139.85 15.963-27.186 6.914-68.025-34.587-70.387-22.64-1.294-68.835-.108-95.19-.156 41.754-15.57 134.144-117.387 62.184-148.157-26.894-11.495-43.308-8.798-222.542-8.798v508.313c34.185-22.451 67.441-46.21 103.597-76.452zM1278.972 2231.42s.062 23.92-107.226 66.577c-90.249 35.892-262.82 51.708-375.021-66.576-78.863-83.132-100.305-173.213-86.17-267.104 11.416-75.882 71.03-162.188 212.552-195.817 139.235-33.075 258.402-4.756 316.302 33.918 40.011 26.737 39.563 60.804 39.563 60.804v-157.027s-11.138 36.642-39.563 27.245c-20.67-6.823-164.369-51.627-337.28-15.505-154.591 32.29-229.994 122.51-251.93 228.35-19.11 92.136-3.986 210.65 71.649 296.784 129.626 147.607 366.817 157.974 485.614 101.233 69.193-33.052 71.51 55.84 71.51 55.84v-168.721z" fill-rule="nonzero"/>
  <path d="M1545.229 2069.321c.609 46.397 58.47 83.875 108.908 83.875 50.439 0 106.87-37.621 107.468-84.028v-314.875c0-27.366-17.237-48.306-47.104-48.306h100.855v363.181c-.598 76.428-78.2 138.453-161.219 138.453-83.019 0-162.449-61.882-163.036-138.3h-.01l.01-314.885c0-29.123-18.112-48.296-48.344-48.296h102.472v363.181z"/>
  <path d="M1428.039 1706.139h-99.132v690.788c202.26-19.85 374.268-80.012 513.611-165.717v-144.226c0 30.59-18.417 94.025-91.901 135.643-99.508 56.362-217.077 98.508-366.947 115.325v-583.518c0-32.113 17.738-48.295 44.369-48.295zM270.566 873.516l-130.181-3.045c-62.214 211.567-86.112 398.19-15.58 687.636 20.784 85.322 99.796 306.85 282.105 335.032 179.68 27.761 312.931-132.011 352.4-258.7 91.11-292.514-34.458-460.617-71.556-505.58l-249.07-301.876c-37.539-45.502-147.99-164.807-59.11-280.48 35.45-46.137 94.172-74.066 145.686-71.933 70.542 2.937 91.93 60.725 91.93 110.663v237.23c-.108 30.711-18.963 48.008-52.86 48.008h111.26V585.233c0-66.72-22.93-148.925-117.78-167.396-94.57-18.412-172.471 29.571-223.856 96.997-109.375 143.482 3.997 286.917 44.5 337.729l257.355 322.877c35.675 44.759 134.76 190.794 66.868 427.282-31.376 109.284-133.769 252.203-295.767 221.804-152.452-28.612-207.727-217.549-234.933-313.155-42.927-150.855-52.667-381.193 9.32-570.322 15.925-48.606 37.744-67.533 89.269-67.533z" fill-rule="nonzero"/>
  <path d="M1868.4 1617.3V970.007c0-35.364-23.545-49.377-59-49.377h112.976v745.662h-53.975c-202.787-5.066-179.313-668.321-323.323-697.264v697.264h-96.807c23.229 0 42.82-18.826 42.82-49.379V920.63h53.987c212.818 0 169.016 646.598 323.323 696.283v.389z"/>
  <path d="M2092.016 1313.522c0-27.69 12.328-70.614 48.615-70.386l202.065 1.318c-.486 77.759-9.56 122.937-16.436 168.99-11.656 78.07-57.69 180.019-121.78 192.497-63.247 12.31-129.398-37.759-166.067-128.51-21.333-52.779-33.244-119.87-35.061-194.187-1.424-58.856.486-152.137 26.287-213.162 20.29-47.96 64.565-83.057 114.511-95.5 59.137-14.731 125.15-2.42 174.956 16.698 43.221 16.59 55.56 35.433 65.156 63.782-.74-25.735-21.425-120.731-31.403-134.432 1.597 13.917 7.107 39.964-46.126 18.22-35.848-14.648-123.286-23.039-172.792-14.456-25.118 4.351-103.423 15.823-151.91 108.277-28.533 54.396-30.686 140.881-33.082 204.807-1.933 51.555 3.878 211.28 39.193 279.4 48.627 93.798 109.708 162.866 211.36 149.416 90.516-11.974 126.434-58.076 161.159-149.415 32.838-86.401 47.214-259.215 34.377-327.984h-254.407c-16.506-.084-47.62 1.666-48.615-10.237v134.864zM1328.9 1666.587V1209.55h54.04v407.745c0 29.87 17.518 49.29 44.504 49.29h-98.543z" fill-rule="nonzero"/>
  <path d="M1021.951 1054.834s103.647 417.036 127.862 549.214c15.04-180.87 12.253-474.006 82.377-654.52 5.76-22.86-19.784-28.677-39.304-28.9h-2.27 115.89c-99.187 230.319-87.643 511.906-91.174 762.714-24.905-11.8-93.583-21.54-125.597-21.763-5.759-86.874-39.505-258.077-67.784-352.132-28.278 94.055-69.021 270.262-74.779 357.136-26.502.874-84.431 7.15-127.419 29.713 33.199-238.46-9.452-545.542-117.08-775.667H818.562h-2.126c-19.603.207-45.216 6.01-39.448 28.898 79.347 180.575 114.452 474.894 113.261 662.885 37.916-132.295 131.702-557.578 131.702-557.578zM1328.47 1164.751h57.091l.348-116.753s-30.747-6.53-43.046 30.031c-9.643 28.68-14.393 86.722-14.393 86.722z"/>
</svg>
