<?xml version="1.0" encoding="UTF-8" standalone="no"?>
<!DOCTYPE svg PUBLIC "-//W3C//DTD SVG 1.1//EN" "http://www.w3.org/Graphics/SVG/1.1/DTD/svg11.dtd">
<svg width="100%" height="100%" viewBox="0 0 2481 2481" version="1.1" xmlns="http://www.w3.org/2000/svg" xmlns:xlink="http://www.w3.org/1999/xlink" xml:space="preserve" xmlns:serif="http://www.serif.com/" style="fill-rule:evenodd;clip-rule:evenodd;stroke-linejoin:round;stroke-miterlimit:1.41421;">
    <g transform="matrix(1.48048,0,0,1.48048,-85.1678,-617.531)">
        <g transform="matrix(8.09658,0,0,8.09658,110.662,471.658)">
            <path d="M113.816,2.709C111.117,-0.147 95.99,-0.282 89.819,0.193C91.655,0.63 92.8,2.178 92.8,4.295L92.8,66.025L102.275,65.974C100.169,65.95 97.347,64.82 97.315,62.139C97.215,61.339 96.917,4.261 97.517,4.261C101.226,4.261 108.002,4.409 109.67,5.805C114.518,9.865 101.153,32.834 98.317,33.945L98.317,37.577C102.086,36.568 106.01,36.544 108.271,36.731C112.374,37.07 112.587,44.701 109.661,52.155C108.772,54.422 106.395,58.79 107.276,61.961C108.505,66.385 111.998,66.025 115.52,66.025L115.52,58.025C115.435,60.319 114.695,63.985 111.221,61.961C109.417,60.91 112.267,54.744 113.161,52.755C115.954,46.541 117.483,33.308 112.209,32.318C110.182,31.937 108.337,32.134 104.591,32.763C108.547,28.677 119.827,9.07 113.816,2.709Z" style="fill-rule:nonzero;"/>
        </g>
        <g transform="matrix(8.09658,0,0,8.09658,102.482,472.42)">
            <path d="M115.37,1.574C117.337,1.966 118.83,3.707 118.83,6.791L118.83,65.93L128.556,65.93C126.7,65.978 123.547,64.258 123.4,61.9L123.23,7.814C123.23,7.814 126.013,8.651 128.328,9.402C134.289,11.336 134.422,24.484 134.52,27.751C134.8,37.067 134.864,44.139 133.048,55.889C132.674,58.313 131.702,63.278 128.997,63.172C127.496,63.113 126.837,62.85 125.747,61.9C126.297,63.701 127.414,64.378 129.536,64.696C135.007,65.515 135.992,59.547 136.663,56.829C138.685,48.642 139.189,34.67 138.548,25.319C138.331,22.162 139.22,8.905 129.536,5.337C125.148,3.721 119.26,2.032 115.37,1.574Z" style="fill-rule:nonzero;"/>
        </g>
        <g transform="matrix(8.09658,0,0,8.09658,110.662,471.658)">
            <path d="M57.854,26.697L57.854,30.172C57.854,30.172 61.744,28.461 63.788,28.044C68.335,27.116 69.558,28.618 70.064,32.851C70.304,34.859 70.842,46.679 70.317,50.866C69.714,55.672 68.509,61.255 65.277,62.581C62.307,63.799 59.517,63.927 58.533,61.936C58.768,64.307 61.349,65.176 64.57,64.803C69.793,64.198 71.9,61.283 73.218,54.953C74.43,49.135 74.567,36.963 74.391,32.851C74.208,28.575 73.428,26.285 70.863,24.432C69.636,23.546 69.141,23.452 65.477,24.432C69.006,21.982 71.165,18.931 72.197,16.523C73.785,12.818 73.281,7.09 70.919,5.582C67.222,3.221 57.139,8.16 48.967,12.703C50.842,12.247 51.9,12.457 51.9,13.815L51.9,65.979L61.4,65.959C59.212,66.076 56.102,64.293 56.2,61.8C56.2,61.8 56.2,60.7 56.2,60.1C56.2,46.3 56.044,13.815 56.044,13.815C56.044,13.815 65.227,9.479 67.209,9.499C70.493,9.533 68.552,15.603 67.209,17.767C65.488,20.539 61.291,24.243 57.854,26.697Z" style="fill-rule:nonzero;"/>
        </g>
        <g transform="matrix(8.09658,0,0,8.09658,115.913,468.871)">
            <path d="M168.347,46.445C170.708,44.185 172.767,40.95 171.222,36.596C169.647,32.159 155.38,20.596 155.38,20.596L155.38,66.369L164.746,66.369C162.221,66.369 159.96,63.942 159.983,61.953L159.983,30.158C159.983,30.158 166.636,36.369 166.987,37.991C167.637,40.999 168.032,46.113 161.26,47.555L161.26,50.803C166.213,49.862 173.488,48.788 175.283,49.741C180.845,52.694 174.098,64.091 181.648,66.007C184.086,66.626 186.073,66.338 187.815,65.979C187.824,65.619 185.231,59.146 184.159,56.685C184.775,59.063 184.345,64.605 182.208,62.727C180.283,61.035 184.871,51.77 177.589,46.445C175.221,44.712 171.189,45.502 168.347,46.445Z" style="fill-rule:nonzero;"/>
        </g>
        <g transform="matrix(0.818948,0,0,0.818948,-551.03,268.98)">
            <path d="M1642.94,254.213C1676.43,254.213 1703.62,281.398 1703.62,314.884C1703.62,348.369 1676.43,375.555 1642.94,375.555C1609.46,375.555 1582.27,348.369 1582.27,314.884C1582.27,281.398 1609.46,254.213 1642.94,254.213ZM1642.94,284.548C1659.69,284.548 1673.28,298.141 1673.28,314.884C1673.28,331.626 1659.69,345.219 1642.94,345.219C1626.2,345.219 1612.61,331.626 1612.61,314.884C1612.61,298.141 1626.2,284.548 1642.94,284.548Z"/>
        </g>
        <g transform="matrix(0.689974,0,0,0.689974,192.996,401.046)">
            <path d="M1412.82,877.108C1516.05,876.854 1535.95,855.001 1552.99,717.874C1561.03,653.2 1568.74,502.815 1571.48,441.611C1573.14,404.452 1573.44,292.817 1631.91,348.966L1631.91,748.948L1561.64,748.948C1560.06,761.208 1558.44,777.409 1553.85,793.879L1631.91,793.879L1631.91,829.88C1631.91,857.021 1603.35,877.114 1571.48,877.114L1685.59,877.108L1685.59,321.092C1685.59,321.092 1630.73,259.979 1573.51,292.905C1550.75,306 1535.54,340.381 1531.02,374.959C1523.97,428.927 1523.19,659.021 1511.33,736.771C1497.6,826.717 1487.52,868.432 1412.82,877.108Z"/>
        </g>
        <g transform="matrix(0.689974,0,0,0.689974,-318.871,401.046)">
            <path d="M1412.82,877.108C1516.05,876.854 1535.95,855.001 1552.99,717.874C1561.03,653.2 1568.74,502.815 1571.48,441.611C1573.14,404.452 1573.44,292.817 1631.91,348.966L1631.91,748.948L1561.64,748.948C1560.06,761.208 1558.44,777.409 1553.85,793.879L1631.91,793.879L1631.91,829.88C1631.91,860.636 1603.35,877.114 1571.48,877.114L1685.59,877.106L1685.59,321.092C1685.59,321.092 1630.73,259.979 1573.51,292.905C1550.75,306 1535.54,340.381 1531.02,374.959C1523.97,428.927 1523.19,659.021 1511.33,736.771C1497.6,826.717 1487.52,868.432 1412.82,877.108Z"/>
        </g>
        <g transform="matrix(8.47673,0,0,8.09658,42.0934,469.323)">
            <path d="M159.055,171.925C157.032,173.467 154.911,172.624 154.9,170.186L154.76,139.518C154.76,139.518 163.259,139.112 164.996,139.707C168.435,140.883 160.759,148.494 156.1,148.991L156.1,152.508C156.1,152.508 163.275,152.443 166.176,152.508C171.868,152.637 168.249,156.938 164.004,161.419C159.426,166.252 156.684,169.386 156.525,163.567C155.078,170.249 157.274,173.732 164.634,166.543C169.488,161.802 171.542,159.113 173.919,154.876C175.191,152.608 174.47,149.201 171.163,149.004C169.359,148.896 165.678,148.995 163.578,148.991C166.905,147.692 174.267,139.198 168.533,136.631C166.39,135.672 165.082,135.897 150.8,135.897L150.8,178.303C153.524,176.43 156.174,174.448 159.055,171.925Z" style="fill-rule:nonzero;"/>
        </g>
        <g transform="matrix(10.4346,0,0,7.79777,-92.8676,522.889)">
            <path d="M97.204,179.725C97.204,179.725 97.208,181.797 90.263,185.492C84.421,188.601 73.25,189.971 65.987,179.725C60.882,172.524 59.494,164.721 60.409,156.588C61.148,150.015 65.007,142.539 74.168,139.626C83.181,136.761 90.895,139.214 94.643,142.564C97.233,144.88 97.204,147.831 97.204,147.831L97.204,134.229C97.204,134.229 96.483,137.403 94.643,136.589C93.305,135.998 84.003,132.117 72.81,135.246C62.803,138.043 57.922,145.858 56.502,155.026C55.265,163.007 56.244,173.273 61.14,180.734C69.531,193.52 84.885,194.418 92.575,189.503C97.054,186.64 97.204,194.34 97.204,194.34L97.204,179.725Z" style="fill-rule:nonzero;"/>
        </g>
        <g transform="matrix(0.748275,0,0,0.689974,-436.024,389.497)">
            <path d="M2054.44,2065.81C2054.99,2111.23 2107.22,2147.92 2152.75,2147.92C2198.28,2147.92 2249.22,2111.09 2249.76,2065.66L2249.76,1757.41C2249.76,1730.62 2234.2,1710.12 2207.24,1710.12L2298.28,1710.12L2298.28,2065.66C2297.74,2140.48 2227.69,2201.2 2152.75,2201.2C2077.81,2201.2 2006.11,2140.62 2005.58,2065.81L2005.57,2065.81L2005.58,1757.55C2005.58,1729.04 1989.23,1710.27 1961.94,1710.27L2054.44,1710.27L2054.44,2065.81Z"/>
        </g>
        <g transform="matrix(6.85008,0,0,8.09658,250.855,471.658)">
            <path d="M112.59,135.598L102.815,135.598L102.815,193.227C122.759,191.571 139.72,186.552 153.46,179.402L153.46,167.37C153.46,169.922 151.644,175.214 144.398,178.686C134.586,183.388 122.993,186.904 108.215,188.307L108.215,139.627C108.215,136.948 109.964,135.598 112.59,135.598Z" style="fill-rule:nonzero;"/>
        </g>
        <g transform="matrix(7.27789,0,0,8.09658,121.915,473.095)">
            <path d="M16.264,65.959L4.182,65.705C-1.592,83.355 -3.81,98.924 2.736,123.071C4.665,130.189 11.998,148.67 28.918,151.021C45.594,153.337 57.961,140.008 61.624,129.439C70.08,105.036 58.426,91.012 54.983,87.261L31.867,62.077C28.383,58.281 18.132,48.328 26.381,38.678C29.671,34.829 35.121,32.499 39.902,32.677C46.449,32.922 48.434,37.743 48.434,41.909L48.434,61.7C48.424,64.262 46.674,65.705 43.528,65.705L53.854,65.705L53.854,41.909C53.854,36.343 51.726,29.485 42.923,27.944C34.146,26.408 26.916,30.411 22.147,36.036C11.996,48.006 22.518,59.972 26.277,64.211L50.162,91.147C53.473,94.881 62.669,107.064 56.368,126.793C53.456,135.91 43.953,147.833 28.918,145.297C14.769,142.91 9.639,127.148 7.114,119.172C3.13,106.587 2.226,87.371 7.979,71.593C9.457,67.538 11.482,65.959 16.264,65.959Z" style="fill-rule:nonzero;"/>
        </g>
        <g transform="matrix(0.689974,0,0,0.689974,-316.626,389.497)">
            <path d="M2371.36,1623.3L2371.36,989.625C2371.36,955.005 2348.31,941.287 2313.6,941.287L2424.2,941.287L2424.2,1671.26L2371.36,1671.26C2172.84,1666.3 2195.82,1017 2054.84,988.666L2054.84,1671.26L1960.07,1671.26C1982.81,1671.26 2001.99,1652.83 2001.99,1622.92L2001.99,941.287L2054.84,941.287L2054.84,941.287C2263.18,941.287 2220.3,1574.28 2371.36,1622.92L2371.36,1623.3Z"/>
        </g>
        <g transform="matrix(7.81841,0,0,8.09658,164.231,471.658)">
            <path d="M167.088,102.844C167.088,100.534 168.153,96.953 171.288,96.972L188.745,97.082C188.703,103.569 187.919,107.338 187.325,111.18C186.318,117.693 182.341,126.198 176.804,127.239C171.34,128.266 165.625,124.089 162.457,116.518C160.614,112.115 159.585,106.518 159.428,100.318C159.305,95.408 159.47,87.626 161.699,82.535C163.452,78.534 167.277,75.606 171.592,74.568C176.701,73.339 182.404,74.366 186.707,75.961C190.441,77.345 191.507,78.917 192.336,81.282C192.272,79.135 190.485,71.21 189.623,70.067C189.761,71.228 190.237,73.401 185.638,71.587C182.541,70.365 174.987,69.665 170.71,70.381C168.54,70.744 161.775,71.701 157.586,79.414C155.121,83.952 154.935,91.167 154.728,96.5C154.561,100.801 155.063,114.126 158.114,119.809C162.315,127.634 167.592,133.396 176.374,132.274C184.194,131.275 187.297,127.429 190.297,119.809C193.134,112.601 194.376,98.184 193.267,92.447L171.288,92.447C169.862,92.44 167.174,92.586 167.088,91.593L167.088,102.844Z" style="fill-rule:nonzero;"/>
        </g>
        <g transform="matrix(-7.60444,0,0,6.06999,1756.65,687.403)">
            <path d="M105.4,140.926L105.4,90.068L100.6,90.068L100.6,135.441C100.6,138.765 99.044,140.926 96.647,140.926L105.4,140.926Z" style="fill-rule:nonzero;"/>
        </g>
        <path d="M747.811,1129.61C747.811,1129.61 817.82,1411.3 834.176,1500.58C844.335,1378.41 842.452,1180.41 889.818,1058.48C893.709,1043.04 876.455,1039.11 863.27,1038.96L861.737,1038.96C862.241,1038.96 862.753,1038.96 863.27,1038.96L940.015,1038.96C873.019,1194.53 880.816,1384.73 878.431,1554.14C861.609,1546.17 815.22,1539.59 793.596,1539.44C789.706,1480.76 766.912,1365.12 747.811,1301.59C728.71,1365.12 701.19,1484.14 697.301,1542.82C679.4,1543.41 640.271,1547.65 611.235,1562.89C633.659,1401.82 604.85,1194.4 532.152,1038.96L608.994,1038.96C609.479,1038.96 609.957,1038.96 610.43,1038.96L608.994,1038.96C595.753,1039.1 578.453,1043.02 582.349,1058.48C635.944,1180.45 659.656,1379.25 658.852,1506.23C684.462,1416.87 747.811,1129.61 747.811,1129.61Z"/>
        <g transform="matrix(0.689974,0,0,0.793296,-297.155,228.346)">
            <path d="M1814.57,1229.69L1870.46,1229.69L1870.8,1130.28C1870.8,1130.28 1840.7,1124.72 1828.66,1155.85C1819.22,1180.27 1814.57,1229.69 1814.57,1229.69Z"/>
        </g>
    </g>
</svg>
